HIERARCHY
ROOT root
{
	OFFSET 0.000000 0.000000 0.000000
	CHANNELS 6 Xposition Yposition Zposition Zrotation Yrotation Xrotation
	JOINT lhip
	{
		OFFSET 0.058581 -0.082280 -0.017664
		CHANNELS 3 Zrotation Yrotation Xrotation
		JOINT lknee
		{
			OFFSET 0.043451 -0.386469 0.008037
			CHANNELS 3 Zrotation Yrotation Xrotation
			JOINT lankle
			{
				OFFSET -0.014790 -0.426874 -0.037428
				CHANNELS 3 Zrotation Yrotation Xrotation
				JOINT ltoe
				{
					OFFSET 0.041054 -0.060286 0.122042
					CHANNELS 3 Zrotation Yrotation Xrotation
					End Site
					{
						OFFSET 0.000000 0.000000 0.000000
					}
				}
			}
		}
	}
	JOINT rhip
	{
		OFFSET -0.060310 -0.090513 -0.013543
		CHANNELS 3 Zrotation Yrotation Xrotation
		JOINT rknee
		{
			OFFSET -0.043257 -0.383688 -0.004843
			CHANNELS 3 Zrotation Yrotation Xrotation
			JOINT rankle
			{
				OFFSET 0.019056 -0.420046 -0.034562
				CHANNELS 3 Zrotation Yrotation Xrotation
				JOINT rtoe
				{
					OFFSET -0.034840 -0.062106 0.130323
					CHANNELS 3 Zrotation Yrotation Xrotation
					End Site
					{
						OFFSET 0.000000 0.000000 0.000000
					}
				}
			}
		}
	}
	JOINT lowerback
	{
		OFFSET 0.004439 0.124404 -0.038385
		CHANNELS 3 Zrotation Yrotation Xrotation
		JOINT upperback
		{
			OFFSET 0.004488 0.137956 0.026820
			CHANNELS 3 Zrotation Yrotation Xrotation
			JOINT chest
			{
				OFFSET -0.002265 0.056032 0.002855
				CHANNELS 3 Zrotation Yrotation Xrotation
				JOINT lowerneck
				{
					OFFSET -0.013390 0.211636 -0.033468
					CHANNELS 3 Zrotation Yrotation Xrotation
					JOINT upperneck
					{
						OFFSET 0.010113 0.088937 0.050410
						CHANNELS 3 Zrotation Yrotation Xrotation
						End Site
						{
							OFFSET 0.000000 0.000000 0.000000
						}
					}
				}
				JOINT lclavicle
				{
					OFFSET 0.071702 0.114000 -0.018898
					CHANNELS 3 Zrotation Yrotation Xrotation
					JOINT lshoulder
					{
						OFFSET 0.122921 0.045205 -0.019046
						CHANNELS 3 Zrotation Yrotation Xrotation
						JOINT lelbow
						{
							OFFSET 0.255332 -0.015649 -0.022946
							CHANNELS 3 Zrotation Yrotation Xrotation
							JOINT lwrist
							{
								OFFSET 0.265709 0.012698 -0.007375
								CHANNELS 3 Zrotation Yrotation Xrotation
								End Site
								{
									OFFSET 0.000000 0.000000 0.000000
								}
							}
						}
					}
				}
				JOINT rclavicle
				{
					OFFSET -0.082954 0.112472 -0.023707
					CHANNELS 3 Zrotation Yrotation Xrotation
					JOINT rshoulder
					{
						OFFSET -0.113228 0.046853 -0.008472
						CHANNELS 3 Zrotation Yrotation Xrotation
						JOINT relbow
						{
							OFFSET -0.260127 -0.014369 -0.031269
							CHANNELS 3 Zrotation Yrotation Xrotation
							JOINT rwrist
							{
								OFFSET -0.269108 0.006794 -0.006027
								CHANNELS 3 Zrotation Yrotation Xrotation
								End Site
								{
									OFFSET 0.000000 0.000000 0.000000
								}
							}
						}
					}
				}
			}
		}
	}
}
MOTION
Frames: 13
Frame Time: 0.033333
0.311094 -0.243373 0.946326 175.149546 0.879222 91.189057 9.191546 0.566116 -20.194284 -6.233315 -2.437273 29.118059 0.106666 2.668083 -16.493447 0.000000 -0.000000 0.000000 -7.182141 -3.960173 -21.867969 -1.019958 -4.274601 27.402938 4.368430 3.131838 -13.119621 0.000000 -0.000000 0.000000 1.668631 1.376079 18.456260 1.142469 -4.634071 6.376126 0.978079 -1.234869 -1.818166 1.231026 10.304692 27.103889 5.558496 6.459031 16.709262 -17.615732 -20.702389 3.192025 -69.375231 -21.401619 24.191623 -8.167048 -38.963680 13.437348 -11.869960 4.846599 -36.365475 12.457629 19.246883 4.632490 69.332990 19.630942 24.954378 5.405799 41.028500 -0.177435 -6.405433 -8.891057 -59.889932 
0.310501 -0.243313 0.946129 175.324750 0.843641 91.240863 9.131499 0.522542 -20.277381 -6.343636 -2.568788 29.068948 0.215059 2.732874 -16.383896 0.000000 -0.000000 0.000000 -7.320576 -4.047791 -21.872644 -0.926087 -4.293724 27.360006 4.466912 3.072566 -13.043794 0.000000 -0.000000 0.000000 1.694896 1.329176 18.444485 1.134308 -4.646341 6.293028 0.953804 -1.205583 -1.726932 1.199898 10.197516 26.963057 5.557931 6.444224 16.809693 -17.560427 -20.624323 3.062034 -69.423294 -21.346302 24.325471 -8.224535 -39.007476 13.432332 -11.382153 5.515652 -36.443483 12.426492 19.269015 4.595872 69.468261 19.662019 25.137688 5.252199 40.960016 -0.412331 -6.472434 -8.962136 -59.793758 
0.309639 -0.243093 0.946122 175.621492 0.774242 91.129646 8.948021 0.329934 -20.175547 -6.319559 -2.743798 28.988159 0.219445 2.753295 -16.401934 0.000000 -0.000000 0.000000 -7.474017 -4.223918 -21.644688 -0.963163 -4.393684 27.301221 4.477509 3.099887 -13.065774 0.000000 -0.000000 0.000000 1.837196 1.337603 18.534905 1.120031 -4.728612 6.395309 0.896967 -1.202960 -1.708608 1.313908 10.115309 26.847780 5.467730 6.251800 16.753681 -17.616451 -20.697527 3.051633 -69.415911 -21.387343 24.274814 -8.192229 -38.835642 13.593227 -12.000990 4.967887 -36.527922 12.426268 19.303230 4.479772 69.615434 19.582687 25.115839 4.878980 40.840847 -0.426428 -6.031192 -8.830906 -59.841990 
0.308906 -0.242948 0.946286 175.927589 0.748678 91.041730 8.837720 0.297407 -20.115790 -6.325012 -2.817944 28.934955 0.230344 2.661721 -16.321366 0.000000 -0.000000 0.000000 -7.522386 -4.475513 -21.414391 -1.001639 -4.380175 27.193950 4.524167 3.052935 -13.072793 0.000000 -0.000000 0.000000 1.939404 1.355295 18.646413 1.136224 -4.787774 6.466110 0.904951 -1.166258 -1.784919 1.316134 10.014373 26.637839 5.431832 6.094427 17.059348 -17.485357 -20.735425 3.016393 -69.572871 -21.268156 24.365824 -8.055836 -38.971657 13.471650 -11.166317 5.517992 -36.859267 12.460099 19.435342 4.445685 69.613390 19.517926 25.081635 4.923395 40.827369 -0.661571 -6.490135 -8.963797 -59.831531 
0.308243 -0.242723 0.946522 176.215853 0.699646 91.063560 8.691532 0.330955 -20.145796 -6.370831 -3.081318 28.875787 0.255611 2.541740 -16.268767 0.000000 -0.000000 0.000000 -7.628104 -4.676134 -21.316400 -0.987563 -4.408016 27.107771 4.604950 2.999537 -13.034740 0.000000 -0.000000 0.000000 2.029534 1.516991 18.608855 1.202823 -4.699865 6.279423 0.981823 -1.282742 -1.583882 1.208824 9.886074 26.841835 5.511792 6.161173 16.861669 -17.553692 -20.741031 3.121776 -69.565423 -21.344125 24.456625 -8.175265 -39.002747 13.259709 -10.522000 6.037016 -36.902976 12.533675 19.369148 4.486035 69.461830 19.573498 25.052453 5.222256 40.802143 -0.673858 -6.625363 -8.812576 -59.803023 
0.307771 -0.242246 0.946661 176.392337 0.577099 91.038446 8.593882 0.339591 -20.005073 -6.533999 -3.160154 28.636691 0.422744 2.492757 -16.171616 0.000000 -0.000000 0.000000 -7.844254 -4.913598 -21.160601 -0.899299 -4.469129 27.021426 4.605339 3.052962 -12.968709 0.000000 -0.000000 0.000000 2.042902 1.742219 18.422131 1.213058 -4.715130 6.670001 1.006088 -1.146358 -1.751991 1.235311 9.782420 26.907866 5.556562 6.207656 16.772875 -17.588126 -20.758189 2.977949 -69.491597 -21.199354 24.508813 -8.373448 -39.106511 13.125487 -10.114550 6.521290 -37.044656 12.660197 19.516149 4.597908 69.352872 19.478535 24.973798 4.974387 40.871361 -1.044785 -6.417824 -9.126515 -59.213134 
0.307120 -0.242274 0.946943 176.883891 0.512791 91.081885 8.478697 0.330073 -20.094766 -6.631992 -3.387551 28.497680 0.319976 2.236232 -15.952919 0.000000 -0.000000 0.000000 -8.017810 -5.028577 -20.994866 -0.911001 -4.685517 26.850752 4.650657 2.904772 -12.916123 0.000000 -0.000000 0.000000 2.089131 1.683326 18.368272 1.280911 -4.684268 6.629162 1.080284 -1.105437 -1.653826 1.143775 9.660533 26.994202 5.556390 6.336750 16.512439 -17.525612 -20.593946 2.940176 -69.604249 -21.187032 24.597921 -8.340512 -39.261937 13.438458 -10.086020 7.059391 -37.411373 12.723097 19.421887 4.763749 69.262036 19.837151 24.902932 5.420596 40.714714 -0.763659 -6.591906 -8.862719 -59.518554 
0.306146 -0.242336 0.947064 177.350427 0.396879 91.231152 8.305784 0.201725 -20.221289 -6.667158 -3.472398 28.221486 0.420842 2.082959 -15.767999 0.000000 -0.000000 0.000000 -8.263959 -5.062920 -20.969596 -0.883798 -4.808671 26.720032 4.642347 2.587254 -12.849174 0.000000 -0.000000 0.000000 2.151996 1.862243 18.136472 1.386816 -4.600257 6.670786 1.166267 -1.132671 -1.627318 1.122080 9.415604 26.969755 5.556846 6.226489 16.526259 -17.490085 -20.686068 3.011142 -69.733391 -21.157008 24.612016 -8.049384 -39.353647 13.552084 -10.686457 7.578111 -37.472822 12.718201 19.546813 4.872608 69.281642 19.723752 24.839821 4.976707 40.854599 -0.949356 -6.038354 -8.679443 -59.902207 
0.305298 -0.242371 0.947441 178.016314 0.311010 91.190856 8.154688 -0.009144 -20.163626 -6.711448 -3.691518 27.892291 0.293077 1.799318 -15.541334 0.000000 -0.000000 0.000000 -8.380694 -5.299609 -20.714539 -1.094980 -5.071912 26.606372 4.755698 2.494100 -12.830091 0.000000 -0.000000 0.000000 2.377433 1.915994 18.169311 1.426000 -4.672770 6.877780 1.177239 -1.029271 -1.753507 1.108137 9.350186 26.870071 5.602777 6.106459 16.342116 -17.436124 -20.766737 2.891086 -69.752244 -21.146533 24.564395 -7.958179 -39.289682 13.127671 -11.057081 7.404877 -37.199551 12.678242 19.647613 4.657146 69.302098 19.590140 24.795333 4.866624 40.757085 -1.210108 -5.525061 -8.596369 -59.437829 
0.304083 -0.242408 0.947624 178.784795 0.136776 91.271808 7.867942 -0.260126 -20.283989 -6.762268 -3.968533 27.647033 0.376665 1.563498 -15.392619 0.000000 -0.000000 0.000000 -8.726286 -5.550225 -20.481550 -1.120672 -5.345032 26.385173 4.794057 2.294931 -12.758243 0.000000 -0.000000 0.000000 2.533565 1.980788 18.023719 1.508115 -4.725520 6.847328 1.197202 -1.021662 -1.620714 1.125380 9.242887 26.839980 5.606078 6.011059 16.338338 -17.373285 -20.845213 2.865714 -69.841743 -21.232707 24.687379 -7.832625 -39.189200 12.819758 -10.884055 7.386308 -37.031385 12.740082 19.610246 4.646649 69.156122 19.614001 24.758330 4.919170 40.752009 -1.252243 -5.012889 -8.300812 -59.329498 
0.302878 -0.242353 0.947919 179.523297 -0.004948 91.285629 7.623392 -0.320843 -20.342903 -6.794926 -4.100016 27.452208 0.409445 1.060838 -15.253873 0.000000 -0.000000 0.000000 -8.954884 -5.854475 -20.208214 -1.222529 -5.513623 26.222550 4.896141 2.030457 -12.796467 0.000000 -0.000000 0.000000 2.762243 2.051611 18.021186 1.560816 -4.726953 6.822105 1.178263 -0.954653 -1.635135 1.022891 8.918432 26.812008 5.598140 6.021765 16.244378 -17.457428 -20.812152 2.880527 -69.861403 -21.285188 24.750822 -7.853436 -39.119729 12.773228 -10.515536 7.403223 -36.832936 12.836549 19.713872 4.697482 69.090227 19.499570 24.722153 4.692725 40.812671 -1.646824 -4.886170 -8.128873 -59.215711 
0.301093 -0.242324 0.948395 -179.379091 -0.052041 91.194795 7.358553 -0.625641 -20.371309 -6.811810 -4.564602 27.291533 0.428314 0.617982 -15.093194 0.000000 -0.000000 0.000000 -9.154193 -6.678010 -19.750340 -1.242763 -5.750232 26.095338 4.944791 2.056096 -12.785849 0.000000 -0.000000 0.000000 3.509203 2.144196 18.079561 1.533326 -4.980922 6.989351 1.041426 -1.085796 -1.818229 0.753267 8.547028 26.865068 5.743216 6.141609 16.096616 -17.498064 -20.921905 2.918899 -69.809312 -21.234436 24.711725 -7.968369 -39.274946 12.559691 -10.001614 7.337301 -36.745298 12.705152 19.731878 4.649093 68.985952 19.404192 24.517139 5.026841 40.998680 -1.809139 -4.894783 -7.954501 -58.636137 
0.299787 -0.242865 0.948272 -178.720832 -0.336858 91.359165 7.033054 -0.924916 -20.619318 -7.032590 -4.898926 27.055217 0.553464 0.656721 -14.904206 0.000000 -0.000000 0.000000 -9.559542 -6.987441 -19.798849 -1.244696 -5.799556 26.145923 4.920710 1.717524 -12.855628 0.000000 -0.000000 0.000000 3.525259 2.279396 17.951008 1.577234 -5.021447 6.768982 1.082929 -0.993739 -1.523255 0.664458 8.520055 26.848641 5.743814 6.105170 15.952518 -17.422324 -20.739687 2.732881 -69.836561 -21.261671 24.857215 -8.363577 -39.433357 12.836407 -8.494706 7.987300 -36.762609 12.627979 19.837464 4.711593 68.972134 19.539701 24.703206 5.068769 41.210614 -1.875307 -6.164355 -8.870872 -58.706190 
